<svg width="12" height="12" viewBox="0 0 12 12" fill="none" xmlns="http://www.w3.org/2000/svg">
<path fill-rule="evenodd" clip-rule="evenodd" d="M9.41248 1.94728V10.0836C9.41248 10.3574 9.19049 10.5794 8.91665 10.5794C8.64281 10.5794 8.42082 10.3574 8.42082 10.0836V1.94728L6.93392 3.43417C6.74029 3.6278 6.42634 3.6278 6.23271 3.43417C6.03907 3.24053 6.03907 2.92659 6.23271 2.73295L8.56604 0.399621C8.75968 0.205986 9.07362 0.205986 9.26726 0.399621L11.6006 2.73295C11.7942 2.92659 11.7942 3.24053 11.6006 3.43417C11.407 3.6278 11.093 3.6278 10.8994 3.43417L9.41248 1.94728ZM3.57915 1.91689C3.57915 1.64305 3.35716 1.42106 3.08332 1.42106C2.80948 1.42106 2.58748 1.64305 2.58748 1.91689V10.0532L1.10059 8.56629C0.906956 8.37265 0.593012 8.37265 0.399377 8.56629C0.205742 8.75992 0.205742 9.07387 0.399377 9.2675L2.73271 11.6008C2.92634 11.7945 3.24029 11.7945 3.43392 11.6008L5.76726 9.2675C5.96089 9.07387 5.96089 8.75992 5.76726 8.56629C5.57362 8.37265 5.25968 8.37265 5.06604 8.56629L3.57915 10.0532V1.91689Z" fill="#408DFB"/>
</svg>
